# xmcd CD database file
#
# Track frame offsets:
#	150
#	16873
#	39881
#	60824
#	73789
#	87039
#	100592
#	112506
#	125490
#	139077
#	151816
#	165613
#	191034
#	206958
#	218180
#	232301
#	246353
#	260637
#	274098
#	288008
#
# Disc length: 4011 seconds
#
# Revision: 0
# Processed by: cddbd v1.5PL3 Copyright (c) Steve Scherf et al.
# Submitted via: CDex 1.50
#
DISCID=140fa914
DTITLE=Compilation - Mega Salsa CD4
DYEAR=2003
DGENRE=Salsa
TTITLE0=Carlos Puebla/Hasta siempre
TTITLE1=Los Van Van/De la habana a matanzas
TTITLE2=Candido Fabre/Cantale tu Barbarito
TTITLE3=Compay Segundo/Jala Leva
TTITLE4=Benny Moré/Bonito y Sabroso
TTITLE5=Omara Portuondo/Le dije a una rosa
TTITLE6=Conjunto de Arsenio Rodriguez/Dundunbanza
TTITLE7=Gloria Matancera/A Centavo el mazo
TTITLE8=Celia Cruz/Cao cao mani picao
TTITLE9=Machito and his Afro cubans/Manina
TTITLE10=Arsenio Rodriguez y su Conjunto/Chicharronero
TTITLE11=Orquesta Aragon/Aprende muchacho
TTITLE12=Conjunto Casino/La bayamesa
TTITLE13=Edmundo Rols and his Rumba Band/Negra Consentida
TTITLE14=Bimbi y su Trio Oriental/La Frutabomba
TTITLE15=Trio Matamoros/El Paralitico
TTITLE16=Sexteto habanero/No hay quien pase
TTITLE17=Compay Segundo/Yo canto en el llano
TTITLE18=Orquesta Casino de la Playa/Los Venecianos
TTITLE19=Conjunto Niagara y Ruben Gonzalez/Para gozar la Rumba
EXTD=YEAR: 2003
EXTT0=
EXTT1=
EXTT2=
EXTT3=
EXTT4=
EXTT5=
EXTT6=
EXTT7=
EXTT8=
EXTT9=
EXTT10=
EXTT11=
EXTT12=
EXTT13=
EXTT14=
EXTT15=
EXTT16=
EXTT17=
EXTT18=
EXTT19=
PLAYORDER=
